<svg xmlns="http://www.w3.org/2000/svg" viewBox="198.32 195.53 373.74 379.30" role="img" aria-label="شعار أنسام"><path fill="currentColor" d="M518.02,372.73l-43.79-.54,80.95-81.05c11.63-11.63,17.93-26.84,16.73-43.24-1.96-27.49-23.14-51.61-51.39-51.83l-101.91-.44c-27.16-.11-50.09,19.23-51.94,46.5l-.33,29.77-59.43-58.78c-18.25-18.14-44.98-22.27-68.67-12.28-21.62,9.02-39.11,29.12-39.11,53.35v89.85c.87,29.12,25.75,51.5,53.78,53.67l43.24.65-84.1,84.86c-15.32,15.54-17.38,39.01-8.37,59.32,7.5,16.95,24.99,31.73,45.85,31.83l103.87.33c27.05.11,48.57-20.21,50.63-46.72l.65-29.01,61.06,60.08c16.84,16.62,42.48,19.56,64.43,11.41,24.34-9.13,41.61-31.29,41.61-58.13l.11-83.44c0-29.88-24.34-53.78-53.89-56.17ZM475.75,440.2c-3.69,16.52-16.41,31.73-34.12,37.38-21.73,7.06-43.68-1.3-57.8-18.69l-17.49-18.36-40.31-42.81-18.58-19.45c-10.54-10.87-14.56-24.45-13.8-39.77.98-19.45,13.15-36.51,30.1-43.79,18.36-7.93,39.77-5.11,54.33,8.37l18.8,19.34,17.38,18.36,20.54,21.73,19.67,20.43,5.43,6.19c14.23,12.93,20.21,31.73,15.86,51.07Z"/></svg>